<svg height="24" viewBox="0 0 24 24" width="24" xmlns="http://www.w3.org/2000/svg">
    <g id="Balance" transform="translate(-801 -12084.045)">
        <g id="Low_stock_products" transform="translate(-1 35.045)">
            <rect data-name="Rectangle 17660" fill="none" height="24" id="Rectangle_17660"
                transform="translate(802 12049)" width="24" />
        </g>
        <path
            d="M24,20.5A3.5,3.5,0,0,1,20.5,24H3.5a3.5,3.5,0,0,1-1.085-6.81c4.524,6.35,14.648,6.348,19.17,0A3.494,3.494,0,0,1,24,20.5ZM22,10A10.011,10.011,0,0,1,12,20C-1.248,19.5-1.244.5,12,0A10.011,10.011,0,0,1,22,10Zm-6,2a2.763,2.763,0,0,0-2.315-2.733l-3.041-.506C9.557,8.55,10,6.935,11,7h2.268a1,1,0,0,1,.867.5,1,1,0,0,0,1.731-1,3.01,3.01,0,0,0-2.6-1.5H13V4a1,1,0,0,0-2,0V5c-3.435-.019-4.184,5.083-.685,5.733l3.041.506C14.443,11.45,14,13.065,13,13H10.732a1,1,0,0,1-.867-.5,1,1,0,0,0-1.731,1,3.01,3.01,0,0,0,2.6,1.5H11v1a1,1,0,0,0,2,0V15a3,3,0,0,0,3-3Z"
            fill="#406fc6" id="donate" transform="translate(800.982 12084.045)" />
    </g>
</svg>
