<svg height="24.044" viewBox="0 0 24 24.044" width="24" xmlns="http://www.w3.org/2000/svg">
    <g id="Low_stock_products" transform="translate(-802 -12049)">
        <rect data-name="Rectangle 17660" fill="none" height="24" id="Rectangle_17660"
            transform="translate(802 12049)" width="24" />
        <g data-name="Group 9491" id="Group_9491" transform="translate(802 12049)">
            <path
                d="M11.024,5.567c0,1.142,0,2.283,0,3.425A2,2,0,0,1,8.959,11.06q-3.447,0-6.895,0A2.009,2.009,0,0,1,0,8.983Q0,5.544,0,2.1A2.016,2.016,0,0,1,2.087.017q3.433,0,6.866,0a2.01,2.01,0,0,1,2.071,2.066c0,1.161,0,2.322,0,3.483"
                data-name="Path 8733" fill="#64c77a" id="Path_8733"
                transform="translate(0 -0.014)" />
            <path
                d="M11.024,172.01c0,1.151,0,2.3,0,3.454a2.01,2.01,0,0,1-2.064,2.073q-3.447.006-6.895,0A2.016,2.016,0,0,1,0,175.456Q0,172.017,0,168.578a2.012,2.012,0,0,1,2.084-2.083q3.433,0,6.866,0a2,2,0,0,1,2.071,2.09c0,1.142,0,2.283,0,3.425"
                data-name="Path 8734" fill="#64c77a" id="Path_8734"
                transform="translate(0 -153.496)" />
            <path
                d="M171.6,53.14c-1.712,0-3.425-.006-5.137.005-.289,0-.4-.077-.385-.379.023-.457.015-.916,0-1.374-.006-.234.066-.331.313-.331q5.2.008,10.391,0c.234,0,.333.073.326.319-.014.477-.016.956,0,1.433.009.265-.1.331-.345.33-1.722-.007-3.444,0-5.166,0"
                data-name="Path 8735" fill="#64c77a" id="Path_8735"
                transform="translate(-153.112 -47.075)" />
            <path
                d="M171.688,166.506H176.8c.386,0,.387,0,.388.392q0,.644,0,1.288c0,.38-.008.389-.4.389h-10.2c-.429,0-.43,0-.43-.443q0-.6,0-1.2c0-.425,0-.425.44-.425h5.083"
                data-name="Path 8736" fill="#64c77a" id="Path_8736"
                transform="translate(-153.193 -153.508)" />
            <path
                d="M169.628,104.28c-1.061,0-2.121-.007-3.181.005-.265,0-.361-.079-.351-.35.018-.477.013-.955,0-1.433,0-.217.081-.3.29-.295q3.24,0,6.48,0c.2,0,.282.076.279.278-.007.5-.009.994,0,1.491,0,.228-.083.307-.309.305-1.07-.008-2.14,0-3.211,0"
                data-name="Path 8737" fill="#64c77a" id="Path_8737"
                transform="translate(-153.129 -94.229)" />
            <path
                d="M169.641,268.6c1.051,0,2.1.007,3.153,0,.276,0,.382.085.372.368-.018.477-.01.955,0,1.433,0,.2-.074.279-.276.279q-3.255-.006-6.51,0c-.184,0-.263-.069-.261-.258.006-.507.013-1.014,0-1.521-.008-.271.136-.3.347-.3,1.061,0,2.121,0,3.182,0"
                data-name="Path 8738" fill="#64c77a" id="Path_8738"
                transform="translate(-153.144 -247.627)" />
            <path
                d="M168.652,2.075c-.739,0-1.478-.006-2.216,0-.237,0-.329-.08-.322-.323.014-.487.011-.974,0-1.461,0-.211.068-.3.285-.294q2.245.009,4.491,0c.2,0,.283.074.281.274-.005.506-.007,1.013,0,1.519,0,.222-.1.285-.3.283-.739-.005-1.478,0-2.216,0"
                data-name="Path 8739" fill="#64c77a" id="Path_8739"
                transform="translate(-153.146 0)" />
            <path
                d="M168.65,217.514c.729,0,1.458.008,2.187,0,.25,0,.35.078.343.335-.013.477-.01.955,0,1.432,0,.22-.072.316-.3.315q-2.231-.009-4.462,0c-.208,0-.3-.073-.293-.291.01-.5.012-.994,0-1.49-.006-.238.1-.3.314-.3.739.008,1.478,0,2.216,0"
                data-name="Path 8740" fill="#64c77a" id="Path_8740"
                transform="translate(-153.152 -200.53)" />
        </g>
    </g>
</svg>
